3.0Hz3min_grf.mot
version=1
nRows=10
nColumns 19
inDegrees=yes
endheader
time	1_ground_force_vx	1_ground_force_vy	1_ground_force_vz	1_ground_force_px	1_ground_force_py	1_ground_force_pz	1_ground_torque_x	1_ground_torque_y	1_ground_torque_z	2_ground_force_vx	2_ground_force_vy	2_ground_force_vz	2_ground_force_px	2_ground_force_py	2_ground_force_pz	2_ground_torque_x	2_ground_torque_y	2_ground_torque_z
            2.502500	           -7.521008	          255.517599	          -18.145764	           -0.217013	            0.006223	           -0.404528	           -0.012997	            0.441561	           -0.031358	            1.919715	          264.851141	           42.616448	           -0.234352	            0.005851	           -0.757455	           -0.037197	           -5.131899	           -0.825759
            2.503000	           -7.382009	          252.451536	          -17.792398	           -0.216588	            0.006224	           -0.404860	           -0.010950	            0.374473	           -0.026392	            2.168340	          260.802716	           42.038756	           -0.234139	            0.005850	           -0.757087	           -0.042978	           -5.169333	           -0.833244
            2.503500	           -6.829527	          248.843380	          -17.121384	           -0.216737	            0.006224	           -0.404813	           -0.014462	            0.526957	           -0.036257	            1.760524	          256.935121	           41.743568	           -0.234255	            0.005850	           -0.757072	           -0.034969	           -5.103483	           -0.829149
            2.504000	           -7.010680	          245.415544	          -16.493632	           -0.216728	            0.006222	           -0.404408	           -0.011481	            0.401917	           -0.027012	            2.106295	          251.965267	           41.444120	           -0.234152	            0.005848	           -0.756413	           -0.043007	           -5.144722	           -0.846222
            2.504500	           -6.780450	          242.350286	          -16.323918	           -0.216720	            0.006222	           -0.404400	           -0.010216	            0.365161	           -0.024596	            1.834315	          249.387697	           41.012687	           -0.233740	            0.005853	           -0.757325	           -0.037605	           -5.112635	           -0.840791
            2.505000	           -6.503500	          239.463729	          -15.786697	           -0.216621	            0.006223	           -0.404613	           -0.010698	            0.393898	           -0.025968	            1.568337	          245.152602	           40.622270	           -0.233689	            0.005850	           -0.756444	           -0.032447	           -5.071835	           -0.840413
            2.505500	           -6.271871	          236.215845	          -15.067485	           -0.216349	            0.006219	           -0.403673	           -0.010508	            0.395763	           -0.025244	            1.954976	          241.840305	           40.328715	           -0.233429	            0.005853	           -0.757132	           -0.041284	           -5.107075	           -0.851644
            2.506000	           -6.087760	          232.790636	          -15.036770	           -0.216619	            0.006219	           -0.403595	           -0.011208	            0.428592	           -0.027684	            2.064401	          237.422924	           39.796696	           -0.233226	            0.005852	           -0.756667	           -0.043996	           -5.059868	           -0.848132
            2.506500	           -5.902576	          229.723993	          -14.545950	           -0.216308	            0.006220	           -0.403838	           -0.008681	            0.337859	           -0.021393	            1.842594	          233.924759	           39.361959	           -0.233305	            0.005852	           -0.756783	           -0.039881	           -5.063023	           -0.851943
            2.507000	           -5.534296	          226.297443	          -14.194700	           -0.216542	            0.006221	           -0.404201	           -0.010015	            0.409507	           -0.025687	            2.373126	          229.692038	           39.111987	           -0.233239	            0.005852	           -0.756731	           -0.052888	           -5.118925	           -0.871651
